<?xml version="1.0" standalone="no"?>
<!DOCTYPE svg PUBLIC "-//W3C//DTD SVG 20010904//EN"
 "http://www.w3.org/TR/2001/REC-SVG-20010904/DTD/svg10.dtd">
<svg version="1.0" xmlns="http://www.w3.org/2000/svg"
 width="128.000000pt" height="128.000000pt" viewBox="0 0 128.000000 128.000000"
 preserveAspectRatio="xMidYMid meet">
<metadata>
Created by potrace 1.14, written by Peter Selinger 2001-2017
</metadata>
<g transform="translate(0.000000,128.000000) scale(0.100000,-0.100000)"
fill="#000000" stroke="none">
<path d="M0 640 l0 -640 640 0 640 0 0 640 0 640 -640 0 -640 0 0 -640z m700
390 c283 -54 418 -357 266 -595 -36 -55 -81 -98 -130 -121 -17 -8 -22 -9 -11
-2 57 38 128 117 158 177 29 59 32 74 32 156 0 75 -5 99 -25 144 l-25 53 -58
-47 -58 -47 -134 1 c-124 2 -135 0 -144 -18 -6 -11 -11 -23 -11 -28 0 -4 70
-7 155 -6 85 0 155 -2 155 -5 0 -4 -26 -26 -57 -49 l-56 -43 -128 0 c-124 0
-128 -1 -135 -22 -4 -13 -6 -25 -5 -27 0 -2 63 -3 139 -2 75 1 149 -2 165 -5
27 -6 27 -6 -34 -55 l-62 -49 -183 0 c-101 0 -184 -4 -184 -9 0 -19 104 -104
158 -128 72 -34 184 -42 257 -19 27 8 51 13 53 11 2 -2 -22 -11 -54 -21 -87
-25 -192 -15 -273 25 -198 100 -273 324 -175 521 55 109 156 186 276 209 60
12 69 12 128 1z"/>
<path d="M523 1006 c-97 -31 -197 -127 -234 -224 -29 -76 -31 -187 -4 -259 10
-29 22 -53 25 -53 4 0 46 81 94 181 49 99 90 178 92 176 3 -2 -36 -87 -86
-188 -49 -101 -90 -185 -90 -186 0 -2 84 -3 186 -3 l186 0 49 38 c26 20 48 39
49 42 0 3 -68 4 -151 2 -86 -2 -156 1 -161 6 -6 6 -4 21 6 41 l17 31 126 0
126 0 43 33 c24 17 44 34 44 37 0 3 -62 4 -137 2 -76 -1 -144 2 -152 7 -11 7
-10 14 8 40 l22 31 131 0 130 0 51 38 52 37 -215 5 -215 6 218 2 c142 1 217 6
217 12 0 21 -96 104 -150 129 -44 21 -73 26 -145 28 -55 2 -106 -3 -132 -11z
m-13 -122 c0 -8 -19 -13 -24 -6 -3 5 1 9 9 9 8 0 15 -2 15 -3z"/>
</g>
</svg>
